<svg id="Capa_1" data-name="Capa 1" xmlns="http://www.w3.org/2000/svg" xmlns:xlink="http://www.w3.org/1999/xlink" viewBox="0 0 1917 861"><defs><style>.cls-1,.cls-3{fill:none;}.cls-2{fill:#d3c8c8;}.cls-3{stroke:#707070;}.cls-4{clip-path:url(#clip-path);}.cls-5{fill:#ac2900;}</style><clipPath id="clip-path"><rect class="cls-1" x="-86.13" y="-44.23" width="2089.05" height="948.62"/></clipPath></defs><g id="Rectángulo_77" data-name="Rectángulo 77"><rect class="cls-2" x="-1.61" y="-1.92" width="1920" height="864"/><rect class="cls-3" x="-1.11" y="-1.42" width="1919" height="863"/></g><g class="cls-4"><g id="Repetir_cuadrícula_3" data-name="Repetir cuadrícula 3"><path id="Unión_1" data-name="Unión 1" class="cls-5" d="M384.46,902.78q-60.56-45.71-121.07-91.51Q171.83,742,80.34,672.66c-1-.69-2-1.19-3-1.77l-.48-1,86.07-40.14a6.7,6.7,0,0,1,8.18.7q110,83.26,220.2,166a8.17,8.17,0,0,1,3.71,8c-1.93,31.17-3.62,62.36-5.41,93.55a23.57,23.57,0,0,1-.08,2.52c-.27,2.27-.68,3.52-1.45,3.88a1.11,1.11,0,0,1-.51.1C386.84,904.39,385.84,903.83,384.46,902.78ZM365,750.49c-16.24-12.1-32.33-24.35-48.55-36.41a7.47,7.47,0,0,1-3.46-7.41Q320.06,569.86,326.88,433a6.76,6.76,0,0,1,4.45-6.81l86.59-40.37L398.35,775.55C387,767,376.05,758.88,365,750.49ZM168.46,589.8a68.48,68.48,0,0,1,33.29-90.95h0a68.48,68.48,0,0,1,90.94,33.28h0A68.48,68.48,0,0,1,259.52,623h0l-.11.05a68.59,68.59,0,0,1-91-33.28Zm53-117q-60.56-45.7-121.07-91.51Q8.83,312-82.66,242.66c-1-.69-2-1.19-3-1.77l-.48-1L-.06,199.72a6.7,6.7,0,0,1,8.18.7q110,83.27,220.2,166a8.17,8.17,0,0,1,3.71,8c-1.93,31.17-3.62,62.36-5.41,93.55a23.57,23.57,0,0,1-.08,2.52c-.28,2.27-.68,3.52-1.45,3.88a1.13,1.13,0,0,1-.51.1C223.84,474.39,222.84,473.83,221.46,472.78ZM202,320.49c-16.24-12.1-32.33-24.35-48.55-36.41a7.47,7.47,0,0,1-3.46-7.41Q157.07,139.86,163.88,3a6.75,6.75,0,0,1,4.45-6.81l86.59-40.38L235.35,345.55C224,337,213.05,328.88,202,320.49ZM5.46,159.8a68.48,68.48,0,0,1,33.29-91h0A68.48,68.48,0,0,1,96.52,193h0l-.11.05A68.59,68.59,0,0,1,5.46,159.8Z"/><path id="Unión_1-2" data-name="Unión 1-2" class="cls-5" d="M909.46,902.78q-60.56-45.71-121.07-91.51-91.56-69.22-183-138.61c-1-.69-2-1.19-3-1.77l-.48-1,86.07-40.14a6.7,6.7,0,0,1,8.18.7q110,83.26,220.2,166a8.17,8.17,0,0,1,3.71,8c-1.93,31.17-3.62,62.36-5.41,93.55a23.57,23.57,0,0,1-.08,2.52c-.27,2.27-.68,3.52-1.45,3.88a1.11,1.11,0,0,1-.51.1C911.84,904.39,910.84,903.83,909.46,902.78ZM890,750.49c-16.24-12.1-32.33-24.35-48.55-36.41a7.47,7.47,0,0,1-3.46-7.41Q845.07,569.86,851.88,433a6.76,6.76,0,0,1,4.45-6.81l86.59-40.37L923.35,775.55C912,767,901.05,758.88,890,750.49ZM693.46,589.8a68.48,68.48,0,0,1,33.29-90.95h0a68.48,68.48,0,0,1,90.94,33.28h0A68.48,68.48,0,0,1,784.52,623h0l-.11.05a68.59,68.59,0,0,1-90.95-33.28Zm53-117q-60.56-45.7-121.07-91.51-91.56-69.22-183-138.61c-.95-.69-2-1.19-3-1.77l-.48-1,86.07-40.14a6.7,6.7,0,0,1,8.18.7q110,83.27,220.2,166a8.17,8.17,0,0,1,3.71,8c-1.93,31.17-3.62,62.36-5.41,93.55a23.57,23.57,0,0,1-.08,2.52c-.28,2.27-.68,3.52-1.45,3.88a1.13,1.13,0,0,1-.51.1C748.84,474.39,747.84,473.83,746.46,472.78ZM727,320.49c-16.24-12.1-32.33-24.35-48.55-36.41a7.47,7.47,0,0,1-3.46-7.41Q682.07,139.86,688.88,3a6.75,6.75,0,0,1,4.45-6.81l86.59-40.38L760.35,345.55C749,337,738.05,328.88,727,320.49ZM530.46,159.8a68.48,68.48,0,0,1,33.29-91h0A68.48,68.48,0,0,1,621.52,193h0l-.11.05a68.59,68.59,0,0,1-90.95-33.28Z"/><path id="Unión_1-3" data-name="Unión 1-3" class="cls-5" d="M1434.46,902.78q-60.56-45.71-121.07-91.51Q1221.83,742,1130.34,672.66c-.95-.69-2-1.19-3-1.77l-.48-1,86.07-40.14a6.7,6.7,0,0,1,8.18.7q110,83.26,220.2,166a8.17,8.17,0,0,1,3.71,8c-1.93,31.17-3.62,62.36-5.41,93.55a23.57,23.57,0,0,1-.08,2.52c-.27,2.27-.68,3.52-1.45,3.88a1.11,1.11,0,0,1-.51.1C1436.84,904.39,1435.84,903.83,1434.46,902.78ZM1415,750.49c-16.24-12.1-32.33-24.35-48.55-36.41a7.47,7.47,0,0,1-3.46-7.41q7.07-136.81,13.88-273.71a6.76,6.76,0,0,1,4.45-6.81l86.59-40.37-19.57,389.77C1437,767,1426.05,758.88,1415,750.49ZM1218.46,589.8a68.48,68.48,0,0,1,33.29-90.95h0a68.48,68.48,0,0,1,90.94,33.28h0A68.48,68.48,0,0,1,1309.52,623h0l-.11.05a68.59,68.59,0,0,1-91-33.28Zm53-117q-60.56-45.7-121.07-91.51Q1058.83,312,967.34,242.66c-1-.69-2-1.19-3-1.77l-.48-1,86.07-40.14a6.7,6.7,0,0,1,8.18.7q110,83.27,220.2,166a8.17,8.17,0,0,1,3.71,8c-1.93,31.17-3.62,62.36-5.41,93.55a23.57,23.57,0,0,1-.08,2.52c-.28,2.27-.68,3.52-1.45,3.88a1.13,1.13,0,0,1-.51.1C1273.84,474.39,1272.84,473.83,1271.46,472.78ZM1252,320.49c-16.24-12.1-32.33-24.35-48.55-36.41a7.47,7.47,0,0,1-3.46-7.41Q1207.07,139.86,1213.88,3a6.75,6.75,0,0,1,4.45-6.81l86.59-40.38-19.57,389.78C1274,337,1263.05,328.88,1252,320.49ZM1055.46,159.8a68.48,68.48,0,0,1,33.29-91h0A68.48,68.48,0,0,1,1146.52,193h0l-.11.05a68.59,68.59,0,0,1-91-33.28Z"/><path id="Unión_1-4" data-name="Unión 1-4" class="cls-5" d="M1959.46,902.78q-60.56-45.71-121.07-91.51Q1746.83,742,1655.34,672.66c-.95-.69-2-1.19-3-1.77l-.48-1,86.07-40.14a6.7,6.7,0,0,1,8.18.7q110,83.26,220.2,166a8.17,8.17,0,0,1,3.71,8c-1.93,31.17-3.62,62.36-5.41,93.55a23.57,23.57,0,0,1-.08,2.52c-.27,2.27-.68,3.52-1.45,3.88a1.11,1.11,0,0,1-.51.1C1961.84,904.39,1960.84,903.83,1959.46,902.78ZM1940,750.49c-16.24-12.1-32.33-24.35-48.55-36.41a7.47,7.47,0,0,1-3.46-7.41q7.07-136.81,13.88-273.71a6.76,6.76,0,0,1,4.45-6.81l86.59-40.37-19.57,389.77C1962,767,1951.05,758.88,1940,750.49ZM1743.46,589.8a68.48,68.48,0,0,1,33.29-90.95h0a68.48,68.48,0,0,1,90.94,33.28h0A68.48,68.48,0,0,1,1834.52,623h0l-.11.05a68.59,68.59,0,0,1-91-33.28Zm53-117q-60.56-45.7-121.07-91.51Q1583.83,312,1492.34,242.66c-.95-.69-2-1.19-3-1.77l-.48-1,86.07-40.14a6.7,6.7,0,0,1,8.18.7q110,83.27,220.2,166a8.17,8.17,0,0,1,3.71,8c-1.93,31.17-3.62,62.36-5.41,93.55a23.57,23.57,0,0,1-.08,2.52c-.28,2.27-.68,3.52-1.45,3.88a1.13,1.13,0,0,1-.51.1C1798.84,474.39,1797.84,473.83,1796.46,472.78ZM1777,320.49c-16.24-12.1-32.33-24.35-48.55-36.41a7.47,7.47,0,0,1-3.46-7.41Q1732.07,139.86,1738.88,3a6.75,6.75,0,0,1,4.45-6.81l86.59-40.38-19.57,389.78C1799,337,1788.05,328.88,1777,320.49ZM1580.46,159.8a68.48,68.48,0,0,1,33.29-91h0A68.48,68.48,0,0,1,1671.52,193h0l-.11.05a68.59,68.59,0,0,1-91-33.28Z"/></g></g><rect class="cls-1" x="-1" y="-1" width="1919" height="863"/></svg>